HIERARCHY
ROOT Hips
{
  OFFSET 0 103.511 0
  CHANNELS 6 Xposition Yposition Zposition Zrotation Xrotation Yrotation
  JOINT RightUpLeg
  {
    OFFSET -10.7813 -3.44521 -0.550249
    CHANNELS 3 Zrotation Xrotation Yrotation
    JOINT RightLeg
    {
      OFFSET -0.804744 -44.0398 -0.130783
      CHANNELS 3 Zrotation Xrotation Yrotation
      JOINT RightFoot
      {
        OFFSET 3.00622 -47.8352 -5
        CHANNELS 3 Zrotation Xrotation Yrotation
        End Site
        {
          OFFSET 0 -5 15
        }
      }
    }
  }
  JOINT LeftUpLeg
  {
    OFFSET 10.7813 -3.44521 -0.550249
    CHANNELS 3 Zrotation Xrotation Yrotation
    JOINT LeftLeg
    {
      OFFSET 0.804744 -44.0398 -0.130783
      CHANNELS 3 Zrotation Xrotation Yrotation
      JOINT LeftFoot
      {
        OFFSET -4.37014 -48.1032 -4.27527
        CHANNELS 3 Zrotation Xrotation Yrotation
        End Site
        {
          OFFSET 0 -5 15
        }
      }
    }
  }
  JOINT Spine
  {
    OFFSET 0 6.4689 -3.12924
    CHANNELS 3 Zrotation Xrotation Yrotation
    JOINT Spine1
    {
      OFFSET 0 23.154 4.99043
      CHANNELS 3 Zrotation Xrotation Yrotation
      JOINT Neck
      {
        OFFSET 0 20.8 -5.06491
        CHANNELS 3 Zrotation Xrotation Yrotation
        JOINT Head
        {
          OFFSET 0 14.3866 9.61618
          CHANNELS 3 Zrotation Xrotation Yrotation
          End Site
          {
            OFFSET 0 20 0
          }
        }
      }
      JOINT RightShoulder
      {
        OFFSET -5.72262 16.3508 3.96775
        CHANNELS 3 Zrotation Xrotation Yrotation
        JOINT RightArm
        {
          OFFSET -13.1636 1.69448 -4.69321
          CHANNELS 3 Zrotation Xrotation Yrotation
          JOINT RightForeArm
          {
            OFFSET -28.5034 -0.310069 -2.79274
            CHANNELS 3 Zrotation Xrotation Yrotation
            JOINT RightHand
            {
              OFFSET -25.1569 0.0224898 -1.27198
              CHANNELS 3 Zrotation Xrotation Yrotation
              End Site
              {
                OFFSET -15 0 0
              }
            }
          }
        }
      }
      JOINT LeftShoulder
      {
        OFFSET 5.72262 16.3508 3.96775
        CHANNELS 3 Zrotation Xrotation Yrotation
        JOINT LeftArm
        {
          OFFSET 13.1636 1.69448 -4.69321
          CHANNELS 3 Zrotation Xrotation Yrotation
          JOINT LeftForeArm
          {
            OFFSET 29.3917 -1.06312 -2.23705
            CHANNELS 3 Zrotation Xrotation Yrotation
            JOINT LeftHand
            {
              OFFSET 24.5996 -0.952848 0.90475
              CHANNELS 3 Zrotation Xrotation Yrotation
              End Site
              {
                OFFSET 15 -0 -0
              }
            }
          }
        }
      }
    }
  }
}
MOTION
Frames:	20
Frame Time:	0.0416667
-9.23872e-007 103.511 -4.17233e-007 4.52346 -3.73466 0.509297 -2.00226 -0.343707 3.85826 0.000186352 27.6696 1.61026e-005 -2.79664 -21.0532 -2.23859 -9.0541 12.9365 -24.7086 0.00423382 5.68102 4.31907e-006 3.69499 -16.534 22.259 -8.07429 -4.57925 2.38481 4.54513 8.37226 -8.04123 0.0121093 -4.26006 7.62742 -1.66778 4.98673 6.28296 6.36768 -17.8385 12.6767 85.688 34.9511 -20.5605 2.95323e-005 6.4005e-007 12.9119 5.80728 17.3683 -2.35556 1.35332 -16.5526 -3.36188 -94.8931 37.0793 21.9566 -9.96161e-006 -3.12124e-006 -17.7329 -7.66556 17.4364 1.02178 
0.318938 103.465 1.29419 3.84408 -3.8722 0.70122 -1.0645 -4.08455 4.02403 0.000184055 34.4259 1.72892e-005 -3.37643 -19.9585 -4.03454 -8.40242 14.0301 -24.4246 0.00423384 5.44211 4.31732e-006 3.47137 -17.2455 21.7327 -7.51634 -3.93691 1.83115 4.5824 8.25734 -8.2239 0.0168892 -4.325 7.57302 -1.72868 4.4077 6.25097 6.33645 -17.8239 12.5141 85.6493 34.8267 -20.6546 2.95342e-005 6.40495e-007 12.7368 5.81102 17.4983 -2.35724 1.30743 -16.4311 -3.54769 -95.0123 36.9189 22.3629 -9.93858e-006 -3.12851e-006 -17.3106 -7.57665 17.6039 1.222 
0.555695 103.502 2.67842 2.92019 -3.89794 0.820088 0.202969 -8.42918 4.12292 0.000182119 39.39 1.84527e-005 -4.16608 -18.9241 -5.36893 -7.50281 14.996 -24.0649 0.00423384 5.35103 4.31667e-006 3.18888 -17.99 21.2221 -6.90659 -3.13297 1.18976 4.77789 8.07232 -8.52904 0.0525115 -4.43987 7.55291 -1.73517 3.78076 6.23274 6.43076 -17.9559 12.3721 85.4446 34.6985 -20.5732 2.95355e-005 6.40775e-007 12.6257 5.79407 17.6311 -2.35404 1.24207 -16.377 -3.81145 -95.0027 36.7409 22.6168 -9.91937e-006 -3.13444e-006 -16.9592 -7.48755 17.6866 1.32051 
0.706816 103.537 4.17357 1.95658 -3.73255 0.76856 1.43478 -13.1935 4.05288 0.000181211 41.5015 1.90418e-005 -4.97932 -17.5053 -6.18264 -6.59978 15.7331 -23.5589 0.00423383 5.45741 4.31743e-006 2.86631 -18.8231 20.6931 -6.22817 -2.24602 0.77369 4.94689 7.82819 -8.64803 0.147579 -4.64515 7.54617 -1.67856 3.07017 6.22398 6.4211 -17.9616 12.2984 85.2792 34.5396 -20.4423 2.95359e-005 6.40875e-007 12.5857 5.76043 17.7715 -2.33063 1.26626 -16.4585 -3.94003 -94.7908 36.5056 22.5297 -9.91034e-006 -3.13718e-006 -16.7942 -7.28195 17.7416 1.32465 
0.818895 103.425 5.87701 1.05306 -3.35901 0.466314 2.4196 -18.1631 4.0023 0.000181577 40.6676 1.88016e-005 -5.67291 -15.4208 -6.31982 -5.84533 16.2926 -22.8842 0.00423381 5.79686 4.31995e-006 2.52059 -19.803 20.1089 -5.57824 -1.3192 0.462163 5.18442 7.53474 -8.74187 0.350962 -4.97005 7.49467 -1.59058 2.33003 6.26503 6.33024 -17.9461 12.2234 85.1109 34.3737 -20.2585 2.95365e-005 6.41003e-007 12.5342 5.72031 17.9158 -2.3124 1.37918 -16.5731 -4.02825 -94.4368 36.2099 22.1667 -9.915e-006 -3.13576e-006 -16.8794 -6.97152 17.7761 1.20301 
0.844662 103.129 7.71847 0.159246 -2.73315 0.297109 3.01605 -22.8283 4.31073 0.000182863 37.5589 1.79899e-005 -6.26573 -12.6147 -5.53784 -5.05829 16.5946 -22.1222 0.00423377 6.32307 4.32416e-006 2.15768 -20.9778 19.3929 -4.9908 -0.435364 0.28297 5.44323 7.23405 -8.76185 0.6024 -5.38868 7.41171 -1.44799 1.54863 6.29412 6.23264 -17.8635 12.1527 85.0065 34.2073 -20.0897 2.95383e-005 6.41407e-007 12.3707 5.70067 18.0655 -2.34065 1.58166 -16.7349 -4.07611 -93.9175 35.8376 21.582 -9.93335e-006 -3.13014e-006 -17.2149 -6.55346 17.7826 0.946954 
0.757385 102.533 9.77743 -0.306194 -1.79527 -0.0387301 3.6466 -27.0811 3.96153 0.000184983 31.8122 1.67821e-005 -6.37574 -9.56682 -4.66942 -4.68447 16.765 -21.1245 0.00423372 6.91324 4.32933e-006 1.71169 -22.2514 18.4672 -4.71956 0.147402 0.318962 5.54139 6.83407 -8.65822 0.818036 -5.79204 7.37225 -1.31538 0.833657 6.32426 6.00057 -17.6802 12.032 85.1302 34.0255 -19.9599 2.95405e-005 6.41888e-007 12.1733 5.69217 18.2348 -2.37312 2.05929 -16.976 -4.06324 -93.1944 35.421 20.6951 -9.97234e-006 -3.11779e-006 -17.9301 -5.96773 17.8676 0.62967 
0.813529 101.821 12.2196 -0.589375 -0.654563 -0.332525 3.90666 -30.66 3.34518 0.000187113 25.2159 1.57632e-005 -6.30722 -6.74146 -3.79939 -4.56323 16.864 -19.9559 0.00423366 7.6898 4.33686e-006 1.05601 -23.4214 17.2798 -4.44742 0.629395 0.293909 5.56959 6.54635 -8.63612 1.0537 -6.10382 7.34676 -1.16322 0.202523 6.38017 5.67372 -17.4645 11.922 85.2524 33.8498 -19.8511 2.95436e-005 6.4254e-007 11.9003 5.70407 18.4266 -2.43432 2.50728 -17.1393 -4.20769 -92.5345 34.9752 19.8747 -1.00111e-005 -3.10499e-006 -18.6433 -5.41118 17.8704 0.244834 
0.753666 100.911 15.315 -0.723767 0.366005 -0.427021 4.42874 -33.1759 2.70323 0.000188846 19.2598 1.51066e-005 -6.18266 -4.84211 -3.14156 -4.58328 17.0957 -18.8263 0.00423356 9.09661 4.3526e-006 0.105905 -24.3083 15.7794 -4.2226 0.796979 0.259176 5.47515 6.23597 -8.65575 1.18117 -6.42167 7.28101 -0.97166 -0.360566 6.28405 5.41424 -17.004 11.78 85.611 33.6475 -19.9923 2.95483e-005 6.43523e-007 11.4773 5.77489 18.6496 -2.54803 2.7976 -17.1556 -4.32217 -91.9785 34.4668 19.2964 -1.0033e-005 -3.09751e-006 -19.048 -4.88875 17.79 -0.104335 
0.644541 100.154 18.863 -0.845691 1.26322 -0.0447255 4.97566 -34.5917 2.11896 0.00018985 15.5891 1.48057e-005 -6.29054 -3.54245 -2.80995 -4.34391 17.3533 -17.6417 0.0042334 11.159 4.38068e-006 -1.30168 -24.4983 13.8132 -3.88947 0.958716 0.161843 5.27647 5.92274 -8.71075 1.24635 -6.65766 7.16248 -0.759559 -0.844524 6.09376 5.26534 -16.4574 11.5972 86.0354 33.444 -20.2965 2.95545e-005 6.44752e-007 10.925 5.86303 18.9037 -2.69053 2.76606 -17.0997 -4.3105 -91.4715 33.8585 18.9905 -1.00358e-005 -3.09653e-006 -19.1007 -4.35058 17.6318 -0.428959 
0.514846 99.7038 23.3186 -1.02215 2.2496 0.56044 5.30877 -34.2939 1.59182 0.000190079 14.7319 1.47459e-005 -6.72594 -2.79804 -2.98769 -3.72611 17.3853 -16.3765 0.00423316 14.2093 4.4335e-006 -3.15013 -23.5967 11.4918 -3.18663 0.808872 -0.152432 5.12196 5.40361 -8.96329 1.11313 -6.92229 7.10821 -0.64687 -1.33504 5.808 5.18064 -15.6876 11.3937 86.5595 33.2451 -20.8691 2.95636e-005 6.46437e-007 10.12 5.99881 19.1838 -2.92164 2.54009 -17.0034 -4.36915 -91.1124 33.2414 18.858 -1.00253e-005 -3.10017e-006 -18.9051 -3.80869 17.4851 -0.646198 
0.316483 99.4534 28.0172 -1.62612 3.23856 1.56008 5.96115 -32.8412 1.4761 0.000189796 15.7909 1.48204e-005 -7.37613 -2.22989 -3.41805 -2.78072 17.0286 -15.5674 0.00423283 18.2157 4.5246e-006 -5.13754 -21.3146 9.32173 -2.20994 0.465594 -0.436912 5.13407 4.94546 -9.19178 1.07109 -7.15065 7.00274 -0.51392 -1.63952 5.57647 5.10637 -14.868 11.3864 87.0469 33.0728 -21.406 2.95731e-005 6.48054e-007 9.28281 6.14392 19.4909 -3.17036 2.18287 -16.749 -4.6324 -90.9304 32.512 18.8405 -1.00109e-005 -3.10504e-006 -18.6406 -3.24388 17.2656 -0.862113 
0.158366 99.7166 33.4346 -2.22166 3.48705 2.18141 6.79615 -30.8484 1.75607 0.000189455 17.0515 1.49168e-005 -8.08601 -2.41458 -3.84363 -2.24556 16.028 -14.5353 0.00423226 24.8327 4.73573e-006 -7.10922 -17.2578 7.46966 -0.969361 0.317332 -0.423936 5.11985 4.79772 -9.11771 0.924173 -7.38676 6.89146 -0.423857 -1.79448 5.26627 5.09682 -14.0217 11.6001 87.4265 32.938 -21.8092 2.95829e-005 6.49589e-007 8.41204 6.25899 19.8207 -3.44216 1.70266 -16.4528 -4.82028 -90.8634 31.6769 18.9003 -9.99821e-006 -3.1093e-006 -18.4061 -2.66497 16.9872 -1.12143 
0.0156564 100.234 38.9753 -2.80758 3.14379 1.92969 7.64869 -27.7673 2.1039 0.000189187 18.0301 1.49976e-005 -8.77748 -3.5684 -4.24357 -1.98661 13.7853 -13.7577 0.0042314 33.5134 5.15481e-006 -8.71966 -11.9185 6.02906 0.265922 0.460623 0.119416 5.02529 4.94061 -8.55681 0.789631 -7.46631 6.74221 -0.310264 -1.68473 4.94346 5.06408 -13.3208 12.1434 87.5683 32.8465 -21.7438 2.95902e-005 6.50617e-007 7.77499 6.25982 20.1704 -3.64881 1.29515 -16.259 -4.91289 -90.7342 30.7521 18.8616 -9.99604e-006 -3.11002e-006 -18.3661 -1.98088 16.6817 -1.49406 
-0.207437 100.955 44.6583 -2.96323 2.14463 1.34786 8.21204 -23.3085 2.30208 0.00018915 18.1632 1.5009e-005 -9.33951 -5.28982 -4.43781 -2.10229 9.88683 -12.9372 0.00423012 43.8279 5.95747e-006 -9.52145 -6.90562 5.41156 0.922531 0.805749 1.07883 4.82878 5.30302 -7.84286 0.593699 -7.18674 6.49546 -0.126455 -1.16061 4.48617 5.22542 -13.0172 12.7112 87.2722 32.82 -21.0942 2.95948e-005 6.51234e-007 7.36647 6.08352 20.5244 -3.75728 0.924414 -16.4062 -4.86471 -90.2781 29.8264 18.5892 -1.00016e-005 -3.10818e-006 -18.4681 -1.22954 16.359 -1.97242 
-0.35747 101.954 50.0464 -2.60827 0.885344 0.910136 8.01889 -18.0579 2.18473 0.000189398 17.2616 1.49337e-005 -9.62356 -7.0569 -4.46588 -2.0499 4.46416 -11.9732 0.0042286 52.7346 7.09793e-006 -9.45637 -4.53801 6.12004 0.752487 1.46544 2.20994 4.7144 5.65876 -7.27495 0.506876 -6.68045 6.15256 0.14652 -0.332063 4.04016 5.49221 -13.2967 13.2463 86.1875 32.8667 -19.6954 2.95938e-005 6.51099e-007 7.45737 5.54207 20.8714 -3.65817 0.655863 -16.7594 -4.96392 -89.637 28.8576 18.0114 -1.00247e-005 -3.10037e-006 -18.8942 -0.395518 16.0189 -2.56186 
-0.450063 102.981 54.9669 -1.75141 -0.282693 0.857143 7.06242 -12.7037 1.76963 0.000189902 15.3978 1.4792e-005 -9.55655 -8.62007 -4.29403 -1.81756 -1.84614 -10.8473 0.00422722 58.5573 8.23903e-006 -9.53366 -3.73457 7.10738 0.124149 2.19293 3.51723 4.44615 6.00075 -6.65833 0.422744 -6.11956 5.75401 0.443218 0.738081 3.55057 5.56918 -13.9446 13.6446 84.634 32.8766 -17.7154 2.95871e-005 6.50194e-007 8.04319 4.62223 21.1935 -3.32514 0.76861 -17.2673 -4.84901 -88.9262 27.8538 17.3049 -1.00627e-005 -3.08709e-006 -19.5989 0.461388 15.6238 -3.21667 
-0.614595 104.244 59.7904 -0.536877 -1.4559 0.489403 5.813 -7.09554 1.26796 0.000190534 13.0093 1.46368e-005 -9.14666 -9.90022 -3.88997 -1.94329 -8.97866 -10.1421 0.00306756 61.7536 9.0813e-006 -8.52818 -4.49628 8.12695 -1.02342 2.82742 4.79376 4.02972 6.45826 -6.10865 0.349306 -5.60755 5.44577 0.686182 1.87709 3.14929 5.56119 -14.6901 13.7463 83.0189 32.7415 -15.5231 2.95752e-005 6.48406e-007 9.0902 3.40209 21.4825 -2.81068 1.07198 -17.7033 -4.55668 -88.2428 26.8183 16.8113 -1.01028e-005 -3.07252e-006 -20.3445 1.29574 15.1895 -3.91501 
-0.706313 105.124 64.6768 0.391917 -2.2441 0.274012 4.78835 -1.82085 0.788936 0.000191192 10.4762 1.45029e-005 -8.52464 -11.0569 -3.37949 -1.88786 -15.8653 -9.08162 0.00108833 59.8252 8.55057e-006 -7.50287 -5.27487 9.62685 -1.89247 3.09883 5.793 3.50399 6.74512 -5.56977 0.319351 -5.14871 5.19427 0.867424 3.06327 2.85493 5.23419 -15.9211 13.788 80.9224 32.5004 -12.7024 2.95559e-005 6.45005e-007 10.8078 1.83079 21.7563 -1.98922 1.52645 -17.9229 -4.1996 -87.8317 25.8411 16.6167 -1.01376e-005 -3.05938e-006 -20.9954 1.9928 14.7445 -4.54836 
-0.815263 105.356 69.4485 0.729794 -2.68071 0.121912 4.41816 2.71103 0.407007 0.000191729 8.37544 1.44148e-005 -7.82992 -12.3079 -2.89997 -1.0912 -22.2628 -7.33264 -0.000191904 52.3586 7.03738e-006 -6.68438 -5.81572 11.8691 -2.25608 3.15016 6.32817 3.05077 7.02723 -5.15533 0.229219 -4.99476 5.10443 0.879462 4.13624 2.68435 4.75307 -17.1183 13.7075 78.9644 32.1029 -9.85707 2.95327e-005 6.40143e-007 12.8753 0.171707 22.0075 -0.990549 2.11089 -18.075 -3.87306 -87.5726 24.9738 16.5579 -1.01659e-005 -3.0484e-006 -21.5251 2.54249 14.3247 -5.07186 
